<?xml version="1.0" standalone="no"?>
<!DOCTYPE svg PUBLIC "-//W3C//DTD SVG 20010904//EN"
 "http://www.w3.org/TR/2001/REC-SVG-20010904/DTD/svg10.dtd">
<svg version="1.0" xmlns="http://www.w3.org/2000/svg"
 width="81.000000pt" height="81.000000pt" viewBox="0 0 81.000000 81.000000"
 preserveAspectRatio="xMidYMid meet">
<metadata>
Created by potrace 1.11, written by Peter Selinger 2001-2013
</metadata>
<g transform="translate(0.000000,81.000000) scale(0.100000,-0.100000)"
fill="#000000" stroke="none">
<path d="M385 771 c-69 -17 -256 -168 -264 -212 -1 -8 -5 -49 -7 -91 -5 -64
-3 -78 9 -78 30 0 38 -25 20 -60 -9 -18 -17 -51 -19 -72 -1 -22 -9 -50 -18
-63 -14 -22 -14 -23 12 -30 15 -4 35 -13 44 -22 19 -17 19 -16 33 72 8 53 9
57 21 78 13 23 61 20 56 -3 -2 -8 -10 -40 -18 -70 -7 -30 -15 -81 -17 -113 -4
-67 8 -87 52 -87 l27 0 2 82 c2 120 21 212 39 194 3 -2 15 -1 28 4 16 6 27 5
33 -3 12 -15 23 -89 28 -187 6 -102 6 -103 48 -83 l36 16 -4 76 c-4 69 -15
140 -32 199 -5 16 -2 22 10 22 9 0 27 7 40 15 31 20 40 10 61 -75 0 -3 6 -21
13 -40 6 -19 13 -50 14 -67 3 -37 9 -40 32 -18 8 8 20 15 26 15 9 0 11 15 6
53 -9 78 -14 97 -39 148 l-23 47 23 33 c28 41 29 64 3 106 -29 49 -60 61 -163
68 -83 5 -144 -25 -189 -93 -23 -34 -23 -46 0 -40 10 3 26 0 36 -7 14 -11 21
-8 46 16 15 16 39 30 52 30 13 1 34 2 48 3 42 2 70 -14 68 -41 -5 -52 -100
-105 -187 -105 -64 0 -127 16 -134 35 -6 17 -1 119 8 147 7 22 57 81 69 81 3
0 21 6 40 14 37 16 137 19 170 6 24 -9 66 -2 66 11 0 5 -17 16 -37 24 -21 8
-47 26 -58 39 -23 28 -65 37 -110 26z"/>
</g>
</svg>
